<mxfile host="Electron" modified="2024-05-17T12:40:08.709Z" agent="Mozilla/5.0 (Windows NT 10.0; Win64; x64) AppleWebKit/537.36 (KHTML, like Gecko) draw.io/24.1.0 Chrome/120.0.6099.109 Electron/28.1.0 Safari/537.36" etag="jEftxibtDRxMgB_bdgMu" version="24.1.0" type="device">
  <diagram name="第 1 页" id="VjtNezPGuycp3r7USpgm">
    <mxGraphModel dx="1302" dy="764" grid="1" gridSize="10" guides="1" tooltips="1" connect="1" arrows="1" fold="1" page="1" pageScale="1" pageWidth="827" pageHeight="1169" math="0" shadow="0">
      <root>
        <mxCell id="0" />
        <mxCell id="1" parent="0" />
        <mxCell id="yzlKB35T4qMyLGQvj3vr-58" style="edgeStyle=orthogonalEdgeStyle;rounded=1;orthogonalLoop=1;jettySize=auto;html=1;exitX=1;exitY=0.5;exitDx=0;exitDy=0;entryX=0;entryY=0.5;entryDx=0;entryDy=0;" parent="1" source="yzlKB35T4qMyLGQvj3vr-63" target="yzlKB35T4qMyLGQvj3vr-65" edge="1">
          <mxGeometry relative="1" as="geometry">
            <mxPoint x="190" y="550" as="targetPoint" />
          </mxGeometry>
        </mxCell>
        <mxCell id="yzlKB35T4qMyLGQvj3vr-59" style="edgeStyle=orthogonalEdgeStyle;rounded=1;orthogonalLoop=1;jettySize=auto;html=1;exitX=1;exitY=0.5;exitDx=0;exitDy=0;entryX=0;entryY=0.5;entryDx=0;entryDy=0;" parent="1" source="yzlKB35T4qMyLGQvj3vr-63" target="yzlKB35T4qMyLGQvj3vr-69" edge="1">
          <mxGeometry relative="1" as="geometry">
            <mxPoint x="190" y="270" as="targetPoint" />
          </mxGeometry>
        </mxCell>
        <mxCell id="yzlKB35T4qMyLGQvj3vr-61" style="edgeStyle=orthogonalEdgeStyle;rounded=1;orthogonalLoop=1;jettySize=auto;html=1;exitX=0.5;exitY=0;exitDx=0;exitDy=0;entryX=0;entryY=0.5;entryDx=0;entryDy=0;" parent="1" source="yzlKB35T4qMyLGQvj3vr-63" target="yzlKB35T4qMyLGQvj3vr-91" edge="1">
          <mxGeometry relative="1" as="geometry" />
        </mxCell>
        <mxCell id="yzlKB35T4qMyLGQvj3vr-62" style="edgeStyle=orthogonalEdgeStyle;rounded=1;orthogonalLoop=1;jettySize=auto;html=1;exitX=1;exitY=0.5;exitDx=0;exitDy=0;entryX=0;entryY=0.5;entryDx=0;entryDy=0;" parent="1" source="yzlKB35T4qMyLGQvj3vr-63" target="yzlKB35T4qMyLGQvj3vr-106" edge="1">
          <mxGeometry relative="1" as="geometry">
            <mxPoint x="210" y="359.9999999999999" as="targetPoint" />
          </mxGeometry>
        </mxCell>
        <mxCell id="yzlKB35T4qMyLGQvj3vr-63" value="Vaddr" style="text;html=1;align=center;verticalAlign=middle;whiteSpace=wrap;rounded=1;" parent="1" vertex="1">
          <mxGeometry x="140" y="417.5" width="40" height="30" as="geometry" />
        </mxCell>
        <mxCell id="yzlKB35T4qMyLGQvj3vr-68" style="edgeStyle=orthogonalEdgeStyle;rounded=1;orthogonalLoop=1;jettySize=auto;html=1;exitX=1;exitY=0.5;exitDx=0;exitDy=0;" parent="1" source="yzlKB35T4qMyLGQvj3vr-69" target="yzlKB35T4qMyLGQvj3vr-78" edge="1">
          <mxGeometry relative="1" as="geometry">
            <mxPoint x="400" y="432.5" as="targetPoint" />
          </mxGeometry>
        </mxCell>
        <mxCell id="yzlKB35T4qMyLGQvj3vr-70" style="edgeStyle=orthogonalEdgeStyle;rounded=1;orthogonalLoop=1;jettySize=auto;html=1;exitX=0.5;exitY=0;exitDx=0;exitDy=0;entryX=0;entryY=0.5;entryDx=0;entryDy=0;" parent="1" source="yzlKB35T4qMyLGQvj3vr-71" target="yzlKB35T4qMyLGQvj3vr-63" edge="1">
          <mxGeometry relative="1" as="geometry" />
        </mxCell>
        <mxCell id="yzlKB35T4qMyLGQvj3vr-141" style="edgeStyle=orthogonalEdgeStyle;rounded=1;orthogonalLoop=1;jettySize=auto;html=1;exitX=0.75;exitY=1;exitDx=0;exitDy=0;startArrow=classic;startFill=1;endArrow=none;endFill=0;" parent="1" source="yzlKB35T4qMyLGQvj3vr-71" target="yzlKB35T4qMyLGQvj3vr-142" edge="1">
          <mxGeometry relative="1" as="geometry">
            <mxPoint x="60" y="462.6" as="targetPoint" />
          </mxGeometry>
        </mxCell>
        <mxCell id="DzAaKty3d5mcM9he4YGY-62" style="edgeStyle=orthogonalEdgeStyle;rounded=1;orthogonalLoop=1;jettySize=auto;html=1;exitX=1;exitY=0.5;exitDx=0;exitDy=0;startArrow=classic;startFill=1;endArrow=none;endFill=0;" edge="1" parent="1" source="yzlKB35T4qMyLGQvj3vr-71" target="DzAaKty3d5mcM9he4YGY-63">
          <mxGeometry relative="1" as="geometry">
            <mxPoint x="99.80952380952374" y="530" as="targetPoint" />
          </mxGeometry>
        </mxCell>
        <mxCell id="yzlKB35T4qMyLGQvj3vr-71" value="" style="shape=trapezoid;perimeter=trapezoidPerimeter;whiteSpace=wrap;html=1;fixedSize=1;rotation=90;rounded=1;fillColor=#d5e8d4;strokeColor=#82b366;" parent="1" vertex="1">
          <mxGeometry x="40" y="420" width="120" height="25" as="geometry" />
        </mxCell>
        <mxCell id="yzlKB35T4qMyLGQvj3vr-75" style="edgeStyle=orthogonalEdgeStyle;rounded=1;orthogonalLoop=1;jettySize=auto;html=1;exitX=1;exitY=0.5;exitDx=0;exitDy=0;" parent="1" source="yzlKB35T4qMyLGQvj3vr-78" target="yzlKB35T4qMyLGQvj3vr-82" edge="1">
          <mxGeometry relative="1" as="geometry">
            <mxPoint x="420.0000000000002" y="432.3965517241379" as="targetPoint" />
          </mxGeometry>
        </mxCell>
        <mxCell id="yzlKB35T4qMyLGQvj3vr-173" style="edgeStyle=orthogonalEdgeStyle;rounded=1;orthogonalLoop=1;jettySize=auto;html=1;exitX=0.5;exitY=0;exitDx=0;exitDy=0;entryX=0.5;entryY=1;entryDx=0;entryDy=0;" parent="1" source="yzlKB35T4qMyLGQvj3vr-78" target="yzlKB35T4qMyLGQvj3vr-96" edge="1">
          <mxGeometry relative="1" as="geometry" />
        </mxCell>
        <mxCell id="yzlKB35T4qMyLGQvj3vr-78" value="Check" style="ellipse;whiteSpace=wrap;html=1;aspect=fixed;rounded=1;fillColor=#d5e8d4;strokeColor=#82b366;" parent="1" vertex="1">
          <mxGeometry x="361.5" y="410" width="45" height="45" as="geometry" />
        </mxCell>
        <mxCell id="yzlKB35T4qMyLGQvj3vr-80" style="edgeStyle=orthogonalEdgeStyle;rounded=1;orthogonalLoop=1;jettySize=auto;html=1;exitX=1;exitY=0.5;exitDx=0;exitDy=0;" parent="1" source="yzlKB35T4qMyLGQvj3vr-82" target="yzlKB35T4qMyLGQvj3vr-135" edge="1">
          <mxGeometry relative="1" as="geometry">
            <mxPoint x="525.0000000000002" y="432.5" as="targetPoint" />
          </mxGeometry>
        </mxCell>
        <mxCell id="DzAaKty3d5mcM9he4YGY-59" style="edgeStyle=orthogonalEdgeStyle;rounded=1;orthogonalLoop=1;jettySize=auto;html=1;exitX=0.5;exitY=1;exitDx=0;exitDy=0;entryX=0.5;entryY=0;entryDx=0;entryDy=0;" edge="1" parent="1" source="yzlKB35T4qMyLGQvj3vr-82" target="DzAaKty3d5mcM9he4YGY-32">
          <mxGeometry relative="1" as="geometry" />
        </mxCell>
        <mxCell id="yzlKB35T4qMyLGQvj3vr-82" value="Hit" style="text;html=1;align=center;verticalAlign=middle;whiteSpace=wrap;rounded=1;" parent="1" vertex="1">
          <mxGeometry x="425" y="417.5" width="30" height="30" as="geometry" />
        </mxCell>
        <mxCell id="yzlKB35T4qMyLGQvj3vr-130" style="edgeStyle=orthogonalEdgeStyle;rounded=1;orthogonalLoop=1;jettySize=auto;html=1;exitX=1;exitY=0.5;exitDx=0;exitDy=0;" parent="1" source="yzlKB35T4qMyLGQvj3vr-91" target="yzlKB35T4qMyLGQvj3vr-131" edge="1">
          <mxGeometry relative="1" as="geometry">
            <mxPoint x="580.0000000000002" y="280.16666666666674" as="targetPoint" />
          </mxGeometry>
        </mxCell>
        <mxCell id="yzlKB35T4qMyLGQvj3vr-178" style="edgeStyle=orthogonalEdgeStyle;rounded=1;orthogonalLoop=1;jettySize=auto;html=1;exitX=1;exitY=0.5;exitDx=0;exitDy=0;entryX=0;entryY=0.75;entryDx=0;entryDy=0;" parent="1" source="yzlKB35T4qMyLGQvj3vr-91" target="yzlKB35T4qMyLGQvj3vr-151" edge="1">
          <mxGeometry relative="1" as="geometry">
            <Array as="points">
              <mxPoint x="380" y="280" />
              <mxPoint x="380" y="235" />
            </Array>
          </mxGeometry>
        </mxCell>
        <mxCell id="yzlKB35T4qMyLGQvj3vr-92" style="edgeStyle=orthogonalEdgeStyle;rounded=1;orthogonalLoop=1;jettySize=auto;html=1;exitX=0;exitY=0.25;exitDx=0;exitDy=0;entryX=0.25;entryY=1;entryDx=0;entryDy=0;" parent="1" source="yzlKB35T4qMyLGQvj3vr-91" target="yzlKB35T4qMyLGQvj3vr-71" edge="1">
          <mxGeometry relative="1" as="geometry" />
        </mxCell>
        <mxCell id="DzAaKty3d5mcM9he4YGY-53" value="Match Way" style="edgeStyle=orthogonalEdgeStyle;rounded=1;orthogonalLoop=1;jettySize=auto;html=1;exitX=1;exitY=0.5;exitDx=0;exitDy=0;entryX=0;entryY=0.25;entryDx=0;entryDy=0;" edge="1" parent="1" source="yzlKB35T4qMyLGQvj3vr-96" target="DzAaKty3d5mcM9he4YGY-2">
          <mxGeometry relative="1" as="geometry" />
        </mxCell>
        <mxCell id="yzlKB35T4qMyLGQvj3vr-96" value="&lt;div&gt;&lt;span style=&quot;background-color: initial;&quot;&gt;Choose&lt;/span&gt;&lt;/div&gt;" style="ellipse;whiteSpace=wrap;html=1;aspect=fixed;rounded=1;fillColor=#d5e8d4;strokeColor=#82b366;" parent="1" vertex="1">
          <mxGeometry x="361.5" y="328" width="45" height="45" as="geometry" />
        </mxCell>
        <mxCell id="yzlKB35T4qMyLGQvj3vr-127" value="" style="endArrow=none;dashed=1;html=1;rounded=1;" parent="1" edge="1" source="DzAaKty3d5mcM9he4YGY-2">
          <mxGeometry width="50" height="50" relative="1" as="geometry">
            <mxPoint x="550" y="640" as="sourcePoint" />
            <mxPoint x="550" y="140" as="targetPoint" />
          </mxGeometry>
        </mxCell>
        <mxCell id="yzlKB35T4qMyLGQvj3vr-143" style="edgeStyle=orthogonalEdgeStyle;rounded=1;orthogonalLoop=1;jettySize=auto;html=1;exitX=1;exitY=0.5;exitDx=0;exitDy=0;" parent="1" source="yzlKB35T4qMyLGQvj3vr-131" target="yzlKB35T4qMyLGQvj3vr-144" edge="1">
          <mxGeometry relative="1" as="geometry">
            <mxPoint x="600" y="280" as="targetPoint" />
          </mxGeometry>
        </mxCell>
        <mxCell id="yzlKB35T4qMyLGQvj3vr-131" value="Data RAM" style="rounded=1;whiteSpace=wrap;html=1;fillColor=#ffe6cc;strokeColor=#d79b00;" parent="1" vertex="1">
          <mxGeometry x="430" y="250" width="130" height="60" as="geometry" />
        </mxCell>
        <mxCell id="yzlKB35T4qMyLGQvj3vr-158" style="edgeStyle=orthogonalEdgeStyle;rounded=1;orthogonalLoop=1;jettySize=auto;html=1;exitX=1;exitY=0.5;exitDx=0;exitDy=0;" parent="1" source="yzlKB35T4qMyLGQvj3vr-135" target="yzlKB35T4qMyLGQvj3vr-170" edge="1">
          <mxGeometry relative="1" as="geometry">
            <mxPoint x="690" y="432.5238095238095" as="targetPoint" />
          </mxGeometry>
        </mxCell>
        <mxCell id="yzlKB35T4qMyLGQvj3vr-163" style="edgeStyle=orthogonalEdgeStyle;rounded=1;orthogonalLoop=1;jettySize=auto;html=1;exitX=1;exitY=0.5;exitDx=0;exitDy=0;entryX=0.5;entryY=1;entryDx=0;entryDy=0;" parent="1" source="yzlKB35T4qMyLGQvj3vr-135" target="yzlKB35T4qMyLGQvj3vr-160" edge="1">
          <mxGeometry relative="1" as="geometry" />
        </mxCell>
        <mxCell id="yzlKB35T4qMyLGQvj3vr-142" value="Vaddr&lt;div&gt;AGU&lt;/div&gt;" style="text;html=1;align=center;verticalAlign=middle;whiteSpace=wrap;rounded=1;" parent="1" vertex="1">
          <mxGeometry y="447.5" width="60" height="30" as="geometry" />
        </mxCell>
        <mxCell id="yzlKB35T4qMyLGQvj3vr-146" style="edgeStyle=orthogonalEdgeStyle;rounded=1;orthogonalLoop=1;jettySize=auto;html=1;exitX=1;exitY=0.5;exitDx=0;exitDy=0;" parent="1" source="yzlKB35T4qMyLGQvj3vr-144" target="yzlKB35T4qMyLGQvj3vr-169" edge="1">
          <mxGeometry relative="1" as="geometry">
            <mxPoint x="690" y="280" as="targetPoint" />
          </mxGeometry>
        </mxCell>
        <mxCell id="yzlKB35T4qMyLGQvj3vr-144" value="Align" style="ellipse;whiteSpace=wrap;html=1;aspect=fixed;fillColor=#d5e8d4;strokeColor=#82b366;rounded=1;" parent="1" vertex="1">
          <mxGeometry x="600" y="260" width="40" height="40" as="geometry" />
        </mxCell>
        <mxCell id="yzlKB35T4qMyLGQvj3vr-154" style="edgeStyle=orthogonalEdgeStyle;rounded=1;orthogonalLoop=1;jettySize=auto;html=1;exitX=1;exitY=0.5;exitDx=0;exitDy=0;entryX=0;entryY=0.5;entryDx=0;entryDy=0;" parent="1" source="yzlKB35T4qMyLGQvj3vr-150" target="yzlKB35T4qMyLGQvj3vr-151" edge="1">
          <mxGeometry relative="1" as="geometry" />
        </mxCell>
        <mxCell id="yzlKB35T4qMyLGQvj3vr-156" value="align op" style="edgeStyle=orthogonalEdgeStyle;rounded=1;orthogonalLoop=1;jettySize=auto;html=1;exitX=1;exitY=0.5;exitDx=0;exitDy=0;entryX=0.5;entryY=0;entryDx=0;entryDy=0;" parent="1" source="yzlKB35T4qMyLGQvj3vr-151" target="yzlKB35T4qMyLGQvj3vr-144" edge="1">
          <mxGeometry x="0.6" relative="1" as="geometry">
            <mxPoint as="offset" />
          </mxGeometry>
        </mxCell>
        <mxCell id="yzlKB35T4qMyLGQvj3vr-162" value="mem op" style="edgeStyle=orthogonalEdgeStyle;rounded=1;orthogonalLoop=1;jettySize=auto;html=1;exitX=1;exitY=0.5;exitDx=0;exitDy=0;" parent="1" source="yzlKB35T4qMyLGQvj3vr-151" target="yzlKB35T4qMyLGQvj3vr-160" edge="1">
          <mxGeometry x="0.2633" relative="1" as="geometry">
            <mxPoint as="offset" />
          </mxGeometry>
        </mxCell>
        <mxCell id="yzlKB35T4qMyLGQvj3vr-168" value="wdata&lt;div&gt;vaddr&lt;/div&gt;" style="edgeStyle=orthogonalEdgeStyle;rounded=1;orthogonalLoop=1;jettySize=auto;html=1;exitX=1;exitY=0.5;exitDx=0;exitDy=0;entryX=1;entryY=0.75;entryDx=0;entryDy=0;" parent="1" source="yzlKB35T4qMyLGQvj3vr-151" target="yzlKB35T4qMyLGQvj3vr-131" edge="1">
          <mxGeometry x="-0.1306" relative="1" as="geometry">
            <mxPoint as="offset" />
          </mxGeometry>
        </mxCell>
        <mxCell id="DzAaKty3d5mcM9he4YGY-11" value="&lt;br&gt;&lt;span style=&quot;color: rgb(0, 0, 0); font-family: Helvetica; font-size: 11px; font-style: normal; font-variant-ligatures: normal; font-variant-caps: normal; font-weight: 400; letter-spacing: normal; orphans: 2; text-align: center; text-indent: 0px; text-transform: none; widows: 2; word-spacing: 0px; -webkit-text-stroke-width: 0px; white-space: nowrap; text-decoration-thickness: initial; text-decoration-style: initial; text-decoration-color: initial; float: none; display: inline !important;&quot;&gt;wdata&lt;/span&gt;" style="edgeStyle=orthogonalEdgeStyle;rounded=1;orthogonalLoop=1;jettySize=auto;html=1;exitX=1;exitY=0.5;exitDx=0;exitDy=0;entryX=0.75;entryY=0;entryDx=0;entryDy=0;labelBackgroundColor=none;" edge="1" parent="1" source="yzlKB35T4qMyLGQvj3vr-151" target="DzAaKty3d5mcM9he4YGY-1">
          <mxGeometry x="0.7675" y="20" relative="1" as="geometry">
            <mxPoint as="offset" />
          </mxGeometry>
        </mxCell>
        <mxCell id="yzlKB35T4qMyLGQvj3vr-151" value="Other&lt;div&gt;Vaddr&lt;br&gt;&lt;div&gt;Buff&lt;/div&gt;&lt;/div&gt;" style="rounded=1;whiteSpace=wrap;html=1;fillColor=#e1d5e7;strokeColor=#9673a6;" parent="1" vertex="1">
          <mxGeometry x="520" y="190" width="40" height="60" as="geometry" />
        </mxCell>
        <mxCell id="yzlKB35T4qMyLGQvj3vr-153" style="edgeStyle=orthogonalEdgeStyle;rounded=1;orthogonalLoop=1;jettySize=auto;html=1;exitX=1;exitY=0.5;exitDx=0;exitDy=0;entryX=0;entryY=0.5;entryDx=0;entryDy=0;" parent="1" source="yzlKB35T4qMyLGQvj3vr-152" target="yzlKB35T4qMyLGQvj3vr-150" edge="1">
          <mxGeometry relative="1" as="geometry" />
        </mxCell>
        <mxCell id="yzlKB35T4qMyLGQvj3vr-152" value="wdata&lt;div&gt;align op&lt;/div&gt;&lt;div&gt;mem op&lt;/div&gt;&lt;div&gt;cacop&lt;/div&gt;" style="text;html=1;align=center;verticalAlign=middle;whiteSpace=wrap;rounded=1;strokeColor=#0e8088;dashed=1;fillColor=#b0e3e6;" parent="1" vertex="1">
          <mxGeometry x="129.81" y="188.75" width="60" height="62.5" as="geometry" />
        </mxCell>
        <mxCell id="yzlKB35T4qMyLGQvj3vr-165" style="edgeStyle=orthogonalEdgeStyle;rounded=1;orthogonalLoop=1;jettySize=auto;html=1;exitX=0;exitY=0.5;exitDx=0;exitDy=0;entryX=1;entryY=0.75;entryDx=0;entryDy=0;" parent="1" source="yzlKB35T4qMyLGQvj3vr-160" target="yzlKB35T4qMyLGQvj3vr-131" edge="1">
          <mxGeometry relative="1" as="geometry">
            <Array as="points">
              <mxPoint x="580" y="340" />
              <mxPoint x="580" y="295" />
            </Array>
          </mxGeometry>
        </mxCell>
        <mxCell id="yzlKB35T4qMyLGQvj3vr-160" value="Wen" style="ellipse;whiteSpace=wrap;html=1;aspect=fixed;fillColor=#d5e8d4;strokeColor=#82b366;rounded=1;" parent="1" vertex="1">
          <mxGeometry x="630" y="320" width="40" height="40" as="geometry" />
        </mxCell>
        <mxCell id="yzlKB35T4qMyLGQvj3vr-167" style="edgeStyle=orthogonalEdgeStyle;rounded=1;orthogonalLoop=1;jettySize=auto;html=1;exitX=0;exitY=0.5;exitDx=0;exitDy=0;entryX=1;entryY=0.5;entryDx=0;entryDy=0;" parent="1" source="yzlKB35T4qMyLGQvj3vr-166" target="yzlKB35T4qMyLGQvj3vr-160" edge="1">
          <mxGeometry relative="1" as="geometry" />
        </mxCell>
        <mxCell id="yzlKB35T4qMyLGQvj3vr-166" value="ready" style="text;html=1;align=center;verticalAlign=middle;whiteSpace=wrap;rounded=1;" parent="1" vertex="1">
          <mxGeometry x="740" y="325" width="40" height="30" as="geometry" />
        </mxCell>
        <mxCell id="yzlKB35T4qMyLGQvj3vr-169" value="rdata" style="text;html=1;align=center;verticalAlign=middle;whiteSpace=wrap;rounded=1;" parent="1" vertex="1">
          <mxGeometry x="730" y="265" width="60" height="30" as="geometry" />
        </mxCell>
        <mxCell id="yzlKB35T4qMyLGQvj3vr-170" value="valid" style="text;html=1;align=center;verticalAlign=middle;whiteSpace=wrap;rounded=1;" parent="1" vertex="1">
          <mxGeometry x="730" y="417.50380952380954" width="60" height="30" as="geometry" />
        </mxCell>
        <mxCell id="yzlKB35T4qMyLGQvj3vr-97" value="" style="endArrow=none;dashed=1;html=1;rounded=1;" parent="1" edge="1">
          <mxGeometry width="50" height="50" relative="1" as="geometry">
            <mxPoint x="330" y="640" as="sourcePoint" />
            <mxPoint x="330" y="140" as="targetPoint" />
          </mxGeometry>
        </mxCell>
        <mxCell id="DzAaKty3d5mcM9he4YGY-64" value="Refill" style="edgeStyle=orthogonalEdgeStyle;rounded=1;orthogonalLoop=1;jettySize=auto;html=1;exitX=0.5;exitY=1;exitDx=0;exitDy=0;entryX=1;entryY=0.75;entryDx=0;entryDy=0;" edge="1" parent="1" source="DzAaKty3d5mcM9he4YGY-1" target="yzlKB35T4qMyLGQvj3vr-69">
          <mxGeometry x="-0.3239" relative="1" as="geometry">
            <Array as="points">
              <mxPoint x="650" y="630" />
              <mxPoint x="360" y="630" />
              <mxPoint x="360" y="447" />
            </Array>
            <mxPoint as="offset" />
          </mxGeometry>
        </mxCell>
        <mxCell id="DzAaKty3d5mcM9he4YGY-68" value="AXI" style="edgeStyle=orthogonalEdgeStyle;rounded=1;orthogonalLoop=1;jettySize=auto;html=1;exitX=1;exitY=0.5;exitDx=0;exitDy=0;startArrow=classic;startFill=1;" edge="1" parent="1" source="DzAaKty3d5mcM9he4YGY-1">
          <mxGeometry relative="1" as="geometry">
            <mxPoint x="760" y="560.1666666666667" as="targetPoint" />
          </mxGeometry>
        </mxCell>
        <mxCell id="DzAaKty3d5mcM9he4YGY-1" value="&amp;nbsp; &amp;nbsp; &amp;nbsp; Cache FSM" style="rounded=1;whiteSpace=wrap;html=1;fillColor=#dae8fc;strokeColor=#6c8ebf;" vertex="1" parent="1">
          <mxGeometry x="590" y="530" width="120" height="60" as="geometry" />
        </mxCell>
        <mxCell id="DzAaKty3d5mcM9he4YGY-3" value="" style="endArrow=none;dashed=1;html=1;rounded=1;" edge="1" parent="1" target="DzAaKty3d5mcM9he4YGY-2">
          <mxGeometry width="50" height="50" relative="1" as="geometry">
            <mxPoint x="550" y="640" as="sourcePoint" />
            <mxPoint x="550" y="140" as="targetPoint" />
          </mxGeometry>
        </mxCell>
        <mxCell id="DzAaKty3d5mcM9he4YGY-40" style="edgeStyle=orthogonalEdgeStyle;rounded=1;orthogonalLoop=1;jettySize=auto;html=1;exitX=1;exitY=0.25;exitDx=0;exitDy=0;entryX=0.5;entryY=1;entryDx=0;entryDy=0;" edge="1" parent="1" source="DzAaKty3d5mcM9he4YGY-2" target="yzlKB35T4qMyLGQvj3vr-144">
          <mxGeometry relative="1" as="geometry" />
        </mxCell>
        <mxCell id="DzAaKty3d5mcM9he4YGY-54" style="edgeStyle=orthogonalEdgeStyle;rounded=1;orthogonalLoop=1;jettySize=auto;html=1;exitX=1;exitY=0.75;exitDx=0;exitDy=0;entryX=0.5;entryY=0;entryDx=0;entryDy=0;" edge="1" parent="1" source="DzAaKty3d5mcM9he4YGY-2" target="DzAaKty3d5mcM9he4YGY-1">
          <mxGeometry relative="1" as="geometry">
            <Array as="points">
              <mxPoint x="590" y="381" />
              <mxPoint x="590" y="480" />
              <mxPoint x="650" y="480" />
            </Array>
          </mxGeometry>
        </mxCell>
        <mxCell id="DzAaKty3d5mcM9he4YGY-2" value="Buff" style="rounded=1;whiteSpace=wrap;html=1;fillColor=#e1d5e7;strokeColor=#9673a6;" vertex="1" parent="1">
          <mxGeometry x="540" y="336" width="20" height="60" as="geometry" />
        </mxCell>
        <mxCell id="yzlKB35T4qMyLGQvj3vr-135" value="Buff" style="rounded=1;whiteSpace=wrap;html=1;fillColor=#e1d5e7;strokeColor=#9673a6;" parent="1" vertex="1">
          <mxGeometry x="540" y="402.5" width="20" height="60" as="geometry" />
        </mxCell>
        <mxCell id="yzlKB35T4qMyLGQvj3vr-91" value="Vaddr Buffer" style="rounded=1;whiteSpace=wrap;html=1;fillColor=#e1d5e7;strokeColor=#9673a6;" parent="1" vertex="1">
          <mxGeometry x="300" y="250" width="40" height="60" as="geometry" />
        </mxCell>
        <mxCell id="yzlKB35T4qMyLGQvj3vr-150" value="Other&lt;div&gt;Buff&lt;/div&gt;" style="rounded=1;whiteSpace=wrap;html=1;fillColor=#e1d5e7;strokeColor=#9673a6;" parent="1" vertex="1">
          <mxGeometry x="300" y="190" width="40" height="60" as="geometry" />
        </mxCell>
        <mxCell id="DzAaKty3d5mcM9he4YGY-27" style="edgeStyle=orthogonalEdgeStyle;rounded=1;orthogonalLoop=1;jettySize=auto;html=1;exitX=1;exitY=0.5;exitDx=0;exitDy=0;entryX=0.5;entryY=1;entryDx=0;entryDy=0;" edge="1" parent="1" source="yzlKB35T4qMyLGQvj3vr-65" target="yzlKB35T4qMyLGQvj3vr-78">
          <mxGeometry relative="1" as="geometry" />
        </mxCell>
        <mxCell id="DzAaKty3d5mcM9he4YGY-28" style="edgeStyle=orthogonalEdgeStyle;rounded=1;orthogonalLoop=1;jettySize=auto;html=1;exitX=1;exitY=0.5;exitDx=0;exitDy=0;" edge="1" parent="1" source="yzlKB35T4qMyLGQvj3vr-65" target="DzAaKty3d5mcM9he4YGY-15">
          <mxGeometry relative="1" as="geometry" />
        </mxCell>
        <mxCell id="DzAaKty3d5mcM9he4YGY-60" value="Uncache" style="edgeStyle=orthogonalEdgeStyle;rounded=1;orthogonalLoop=1;jettySize=auto;html=1;exitX=1;exitY=0.5;exitDx=0;exitDy=0;entryX=0;entryY=0.5;entryDx=0;entryDy=0;" edge="1" parent="1" target="DzAaKty3d5mcM9he4YGY-32">
          <mxGeometry x="0.1154" relative="1" as="geometry">
            <mxPoint x="334" y="500" as="sourcePoint" />
            <mxPoint x="411.50000000000205" y="559.99" as="targetPoint" />
            <Array as="points">
              <mxPoint x="384" y="500" />
              <mxPoint x="384" y="560" />
            </Array>
            <mxPoint as="offset" />
          </mxGeometry>
        </mxCell>
        <mxCell id="yzlKB35T4qMyLGQvj3vr-65" value="MMU" style="rounded=1;whiteSpace=wrap;html=1;fillColor=#dae8fc;strokeColor=#6c8ebf;" parent="1" vertex="1">
          <mxGeometry x="220" y="470" width="120" height="60" as="geometry" />
        </mxCell>
        <mxCell id="yzlKB35T4qMyLGQvj3vr-69" value="Tag&lt;div&gt;Vaild&lt;/div&gt;&lt;div&gt;RAM&lt;/div&gt;" style="rounded=1;whiteSpace=wrap;html=1;fillColor=#ffe6cc;strokeColor=#d79b00;" parent="1" vertex="1">
          <mxGeometry x="220" y="402.5" width="120" height="60" as="geometry" />
        </mxCell>
        <mxCell id="DzAaKty3d5mcM9he4YGY-55" value="Repl Way" style="edgeStyle=orthogonalEdgeStyle;rounded=1;orthogonalLoop=1;jettySize=auto;html=1;exitX=1;exitY=0.75;exitDx=0;exitDy=0;entryX=0;entryY=0.75;entryDx=0;entryDy=0;" edge="1" parent="1" source="yzlKB35T4qMyLGQvj3vr-106" target="DzAaKty3d5mcM9he4YGY-2">
          <mxGeometry x="0.3" y="1" relative="1" as="geometry">
            <mxPoint as="offset" />
          </mxGeometry>
        </mxCell>
        <mxCell id="yzlKB35T4qMyLGQvj3vr-106" value="Plru Ram" style="rounded=1;whiteSpace=wrap;html=1;fillColor=#ffe6cc;strokeColor=#d79b00;" parent="1" vertex="1">
          <mxGeometry x="220" y="336" width="120" height="60" as="geometry" />
        </mxCell>
        <mxCell id="DzAaKty3d5mcM9he4YGY-17" style="edgeStyle=orthogonalEdgeStyle;rounded=1;orthogonalLoop=1;jettySize=auto;html=1;exitX=1;exitY=0.5;exitDx=0;exitDy=0;entryX=0.25;entryY=0;entryDx=0;entryDy=0;" edge="1" parent="1" source="DzAaKty3d5mcM9he4YGY-15" target="DzAaKty3d5mcM9he4YGY-1">
          <mxGeometry relative="1" as="geometry" />
        </mxCell>
        <mxCell id="DzAaKty3d5mcM9he4YGY-15" value="Buff" style="rounded=1;whiteSpace=wrap;html=1;fillColor=#e1d5e7;strokeColor=#9673a6;" vertex="1" parent="1">
          <mxGeometry x="540" y="470" width="20" height="60" as="geometry" />
        </mxCell>
        <mxCell id="DzAaKty3d5mcM9he4YGY-29" value="Paddr等" style="text;html=1;align=center;verticalAlign=middle;whiteSpace=wrap;rounded=0;rotation=-90;" vertex="1" parent="1">
          <mxGeometry x="300" y="485" width="60" height="30" as="geometry" />
        </mxCell>
        <mxCell id="DzAaKty3d5mcM9he4YGY-58" style="edgeStyle=orthogonalEdgeStyle;rounded=1;orthogonalLoop=1;jettySize=auto;html=1;exitX=1;exitY=0.5;exitDx=0;exitDy=0;entryX=0;entryY=0.5;entryDx=0;entryDy=0;" edge="1" parent="1" source="DzAaKty3d5mcM9he4YGY-32" target="DzAaKty3d5mcM9he4YGY-1">
          <mxGeometry relative="1" as="geometry" />
        </mxCell>
        <mxCell id="DzAaKty3d5mcM9he4YGY-66" style="edgeStyle=orthogonalEdgeStyle;rounded=1;orthogonalLoop=1;jettySize=auto;html=1;exitX=0.5;exitY=1;exitDx=0;exitDy=0;startArrow=classic;startFill=1;endArrow=none;endFill=0;" edge="1" parent="1" source="DzAaKty3d5mcM9he4YGY-32" target="DzAaKty3d5mcM9he4YGY-67">
          <mxGeometry relative="1" as="geometry">
            <mxPoint x="440.1428571428571" y="610" as="targetPoint" />
          </mxGeometry>
        </mxCell>
        <mxCell id="DzAaKty3d5mcM9he4YGY-32" value="BOOT&lt;div&gt;FSM&lt;/div&gt;" style="ellipse;whiteSpace=wrap;html=1;aspect=fixed;rounded=1;fillColor=#d5e8d4;strokeColor=#82b366;" vertex="1" parent="1">
          <mxGeometry x="417.5" y="537.49" width="45" height="45" as="geometry" />
        </mxCell>
        <mxCell id="DzAaKty3d5mcM9he4YGY-48" style="edgeStyle=orthogonalEdgeStyle;rounded=1;orthogonalLoop=1;jettySize=auto;html=1;exitX=0;exitY=0.5;exitDx=0;exitDy=0;entryX=0;entryY=1;entryDx=0;entryDy=0;" edge="1" parent="1" source="DzAaKty3d5mcM9he4YGY-43" target="yzlKB35T4qMyLGQvj3vr-144">
          <mxGeometry relative="1" as="geometry" />
        </mxCell>
        <mxCell id="DzAaKty3d5mcM9he4YGY-43" value="Read Buf" style="rounded=1;whiteSpace=wrap;html=1;rotation=90;fillColor=#b1ddf0;strokeColor=#10739e;" vertex="1" parent="1">
          <mxGeometry x="579" y="548.12" width="55" height="23.75" as="geometry" />
        </mxCell>
        <mxCell id="DzAaKty3d5mcM9he4YGY-63" value="Stage 1&lt;div&gt;Ready&lt;/div&gt;" style="text;html=1;align=center;verticalAlign=middle;whiteSpace=wrap;rounded=0;" vertex="1" parent="1">
          <mxGeometry x="69.80952380952374" y="515" width="60" height="30" as="geometry" />
        </mxCell>
        <mxCell id="DzAaKty3d5mcM9he4YGY-67" value="cacop&lt;div&gt;（from buf）&lt;/div&gt;" style="text;html=1;align=center;verticalAlign=middle;whiteSpace=wrap;rounded=0;" vertex="1" parent="1">
          <mxGeometry x="400.14" y="600" width="79.86" height="30" as="geometry" />
        </mxCell>
      </root>
    </mxGraphModel>
  </diagram>
</mxfile>
